<?xml version="1.0" encoding="UTF-8" standalone="no"?>
<!-- Created with Inkscape (http://www.inkscape.org/) -->

<svg
   width="30"
   height="30"
   viewBox="0 0 7.9374998 7.9375"
   version="1.1"
   id="svg1"
   inkscape:version="1.4 (86a8ad7, 2024-10-11)"
   sodipodi:docname="heart.svg"
   xmlns:inkscape="http://www.inkscape.org/namespaces/inkscape"
   xmlns:sodipodi="http://sodipodi.sourceforge.net/DTD/sodipodi-0.dtd"
   xmlns="http://www.w3.org/2000/svg"
   xmlns:svg="http://www.w3.org/2000/svg">
  <sodipodi:namedview
     id="namedview1"
     pagecolor="#ffffff"
     bordercolor="#000000"
     borderopacity="0.25"
     inkscape:showpageshadow="2"
     inkscape:pageopacity="0.0"
     inkscape:pagecheckerboard="0"
     inkscape:deskcolor="#d1d1d1"
     inkscape:document-units="mm"
     inkscape:zoom="10.61303"
     inkscape:cx="10.647289"
     inkscape:cy="2.4027069"
     inkscape:window-width="2160"
     inkscape:window-height="1334"
     inkscape:window-x="-11"
     inkscape:window-y="-11"
     inkscape:window-maximized="1"
     inkscape:current-layer="layer1" />
  <defs
     id="defs1">
    <filter
       inkscape:collect="always"
       style="color-interpolation-filters:sRGB"
       id="filter3"
       x="-0.026925743"
       y="-0.027074668"
       width="1.0538515"
       height="1.0541493">
      <feGaussianBlur
         inkscape:collect="always"
         stdDeviation="0.57591718"
         id="feGaussianBlur3" />
    </filter>
  </defs>
  <g
     inkscape:label="Katman 1"
     inkscape:groupmode="layer"
     id="layer1">
    <path
       id="path1"
       style="opacity:0.9;fill:#000000;stroke-width:0.264583;filter:url(#filter3)"
       d="m 16.855258,-9.2951146 a 14.666667,13.679487 0 0 0 -12.5056951,7.661547 12.551282,12.692307 0 0 0 -10.977625,-6.545853 12.551282,12.692307 0 0 0 -12.5516889,12.692248 12.551282,12.692307 0 0 0 1.062468,5.077207 h -0.216008 l 0.606682,0.7859996 a 12.551282,12.692307 0 0 0 2.878894,3.72897 l 21.3346129,27.63863 0.84646,-1.12862 20.6928001,-26.77821 a 14.666667,13.679487 0 0 0 2.42311,-3.13572 l 0.85886,-1.1110496 h -0.29146 a 14.666667,13.679487 0 0 0 1.1374,-5.218283 l -0.0243,-0.785482 a 14.666667,13.679487 0 0 0 -15.27451,-12.881384 z"
       transform="matrix(0.14234165,0,0,0.14959731,2.8075084,1.5293752)" />
    <path
       id="path3"
       style="fill:#ff0000;stroke-width:0.0386091"
       d="M 5.8490764,0.18104494 A 2.0876776,2.0464145 0 0 0 4.0689954,1.327192 1.7865702,1.898735 0 0 0 2.5064214,0.34794994 1.7865702,1.898735 0 0 0 0.71979239,2.2466762 a 1.7865702,1.898735 0 0 0 0.151234,0.7595363 h -0.03074 l 0.08636,0.1175834 A 1.7865702,1.898735 0 0 0 1.3364324,3.6816398 l 3.036803,4.1346648 0.120487,-0.1688386 2.945448,-4.0059482 a 2.0876776,2.0464145 0 0 0 0.344909,-0.4690953 l 0.122252,-0.16621 h -0.04149 a 2.0876776,2.0464145 0 0 0 0.161899,-0.780641 l -0.0035,-0.1175059 A 2.0876776,2.0464145 0 0 0 5.8490424,0.18104494 Z" />
  </g>
</svg>
